<svg width="20" height="18" viewBox="0 0 20 18" fill="none" xmlns="http://www.w3.org/2000/svg">
<path d="M7.58588 0.999636L0.99988 7.58564C0.624937 7.96069 0.414307 8.46931 0.414307 8.99964C0.414307 9.52996 0.624937 10.0386 0.99988 10.4136L7.58588 16.9996C7.86557 17.2795 8.22199 17.4701 8.61004 17.5474C8.99809 17.6246 9.40033 17.585 9.76588 17.4336L9.91088 17.3656C10.2387 17.1979 10.5138 16.943 10.7059 16.6289C10.8981 16.3148 10.9998 15.9538 10.9999 15.5856V12.9996H17.9999C18.5303 12.9996 19.039 12.7889 19.4141 12.4138C19.7892 12.0388 19.9999 11.5301 19.9999 10.9996V6.99964L19.9949 6.84964C19.957 6.34648 19.7304 5.87622 19.3604 5.53313C18.9904 5.19004 18.5045 4.99948 17.9999 4.99964L10.9999 4.99864V2.41364C10.9998 2.01814 10.8825 1.63154 10.6627 1.30272C10.4429 0.9739 10.1306 0.71762 9.76519 0.56628C9.39979 0.41494 8.99772 0.375334 8.60982 0.45247C8.22191 0.529605 7.86558 0.720017 7.58588 0.999636Z" fill="white"/>
</svg>
